<?xml version="1.0" encoding="utf-8"?>
<!-- Generator: Adobe Illustrator 22.0.1, SVG Export Plug-In . SVG Version: 6.00 Build 0)  -->
<svg version="1.1" id="Layer_1" xmlns="http://www.w3.org/2000/svg" xmlns:xlink="http://www.w3.org/1999/xlink" x="0px" y="0px"
	 viewBox="0 0 1224 612" style="enable-background:new 0 0 1224 612;" xml:space="preserve">
<style type="text/css">
	.st0{fill:#563D7C;}
	.st1{enable-background:new    ;}
	.st2{fill:#FFFFFF;}
</style>
<g inkscape:version="0.48.1 r9760" sodipodi:docname="twitter_bootstrap_logo.svg" xmlns:cc="http://creativecommons.org/ns#" xmlns:dc="http://purl.org/dc/elements/1.1/" xmlns:inkscape="http://www.inkscape.org/namespaces/inkscape" xmlns:rdf="http://www.w3.org/1999/02/22-rdf-syntax-ns#" xmlns:sodipodi="http://sodipodi.sourceforge.net/DTD/sodipodi-0.dtd" xmlns:svg="http://www.w3.org/2000/svg">
	<path class="st0" d="M1179.2,612H44.8C20.2,612,0,589.7,0,562.5v-513C0,22.3,20.2,0,44.8,0h1134.3c24.6,0,44.8,22.3,44.8,49.5v513
		C1224,589.7,1203.9,612,1179.2,612z"/>
	<g>
		<g class="st1">
			<path class="st2" d="M157.8,91.6h23.9V262h-23.9V91.6z M169.5,91.6H265v22.7h-95.5V91.6z M169.5,167.5h82.6v22.7h-82.6V167.5z"/>
			<path class="st2" d="M289.6,140.4h23.9V262h-23.9V140.4z M348.5,163.3c-3.2-1.3-6.9-2-11.1-2c-7.6,0-13.5,2.1-17.6,6.3
				c-4.2,4.2-6.3,10-6.3,17.4l-2.5-23.4c3.8-7.3,8.6-12.9,14.5-16.9c5.9-4,12.5-6,19.7-6c5.5,0,10.6,0.8,15.1,2.4
				c4.5,1.6,8.4,4,11.8,7.1l-15.6,21.1C354.4,166.6,351.8,164.7,348.5,163.3z"/>
			<path class="st2" d="M425,263.8c0,0-4-2.1-12-6.3s-14-10.4-18.2-18.6c-4.2-8.2-6.3-18-6.3-29.6v-13.7c0-12,2-22.3,6-30.8
				c4-8.5,9.9-15,17.5-19.5c7.7-4.5,16.9-6.7,27.7-6.7c10.2,0,18.8,2.5,26,7.6c7.2,5.1,12.7,12.4,16.5,22c3.8,9.6,5.7,21.1,5.7,34.6
				v8h-82v-19.2h59.3c-0.7-9.9-3.3-17.6-7.7-23.1c-4.4-5.5-10.3-8.3-17.8-8.3c-9.1,0-16.1,3-21,8.9c-5,5.9-7.4,14.3-7.4,25.2v15.5
				c0,10.1,2.7,17.8,8,23.2c5.3,5.4,12.9,8.1,22.6,8.1c4.8,0,9.6-1,14.4-2.9c4.8-2,9-4.7,12.8-8.2l15.7,15.7
				c-6,5.8-12.8,10.3-20.3,13.4s-15,4.7-22.6,4.7C430.6,263.8,425,263.8,425,263.8z"/>
			<path class="st2" d="M553.6,263.8c0,0-4-2.1-12-6.3s-14-10.4-18.2-18.6c-4.2-8.2-6.3-18-6.3-29.6v-13.7c0-12,2-22.3,6-30.8
				c4-8.5,9.9-15,17.5-19.5c7.7-4.5,16.9-6.7,27.7-6.7c10.2,0,18.8,2.5,26,7.6c7.2,5.1,12.7,12.4,16.5,22c3.8,9.6,5.7,21.1,5.7,34.6
				v8h-82v-19.2h59.3c-0.7-9.9-3.3-17.6-7.7-23.1c-4.4-5.5-10.3-8.3-17.8-8.3c-9.1,0-16.1,3-21,8.9c-5,5.9-7.4,14.3-7.4,25.2v15.5
				c0,10.1,2.7,17.8,8,23.2c5.3,5.4,12.9,8.1,22.6,8.1c4.8,0,9.6-1,14.4-2.9c4.8-2,9-4.7,12.8-8.2l15.7,15.7
				c-6,5.8-12.8,10.3-20.3,13.4s-15,4.7-22.6,4.7C559.3,263.8,553.6,263.8,553.6,263.8z"/>
			<path class="st2" d="M692.7,91.6h23.8V262h-23.8V91.6z M706.8,239.9H753c12.1,0,20.9-2.3,26.5-6.9c5.5-4.6,8.3-11.1,8.3-19.5
				v-0.4c0-5.8-1-10.7-3-14.9c-2-4.1-5.1-7.3-9.4-9.6c-4.3-2.2-9.8-3.3-16.5-3.3h-52v-21.6h52c8.8,0,15.5-2.1,20-6.2
				c4.5-4.1,6.7-10.3,6.7-18.4c0-8.5-2.5-14.9-7.5-19.1c-5-4.2-12.5-6.3-22.5-6.3h-48.8V91.6h53.1c11,0,20.2,1.9,27.7,5.6
				c7.4,3.8,13,9.1,16.6,15.9c3.7,6.9,5.5,15.1,5.5,24.6c0,5.9-1.1,11.3-3.4,16.5c-2.3,5.1-5.7,9.5-10.4,13.1
				c-4.6,3.6-10.4,6.1-17.3,7.3c6.9,1,12.8,3.5,17.8,7.3c5,3.9,8.8,8.7,11.5,14.5c2.7,5.8,4,12,4,18.8v0.4c0,9.2-2,17.3-6.1,24.4
				c-4.1,7-9.9,12.5-17.5,16.3c-7.6,3.8-16.4,5.7-26.5,5.7h-55.1V239.9z"/>
			<path class="st2" d="M878.2,263.8c0,0-4-2.1-12-6.3s-14-10.4-18.2-18.6c-4.2-8.2-6.3-18-6.3-29.6v-13.7c0-12,2-22.3,6-30.8
				c4-8.5,9.9-15,17.5-19.5c7.7-4.5,16.9-6.7,27.7-6.7c10.2,0,18.8,2.5,26,7.6c7.2,5.1,12.7,12.4,16.5,22c3.8,9.6,5.7,21.1,5.7,34.6
				v8h-82v-19.2h59.3c-0.7-9.9-3.3-17.6-7.7-23.1c-4.4-5.5-10.3-8.3-17.8-8.3c-9.1,0-16.1,3-21,8.9c-5,5.9-7.4,14.3-7.4,25.2v15.5
				c0,10.1,2.7,17.8,8,23.2c5.3,5.4,12.9,8.1,22.6,8.1c4.8,0,9.6-1,14.4-2.9c4.8-2,9-4.7,12.8-8.2l15.7,15.7
				c-6,5.8-12.8,10.3-20.3,13.4s-15,4.7-22.6,4.7C883.9,263.8,878.2,263.8,878.2,263.8z"/>
			<path class="st2" d="M964.6,140.4h54.8v21.6h-54.8V140.4z M984,254.4c-4.6-5.4-6.9-13.5-6.9-24.1V105h23.9v125.6
				c0,3,0.6,5.3,1.8,6.9c1.2,1.6,2.9,2.4,5.2,2.4h11.5v22.7h-13.8C995.8,262.6,988.6,259.9,984,254.4z"/>
		</g>
	</g>
	<g>
		<g class="st1">
			<path class="st2" d="M213.2,337.6h22.4v170.4h-23.3V380.3l1.2,7.5l-42,96.4h-16.6l-42-94.1l1.2-9.8v127.6H90.8V337.6h22.4
				l50,112.5L213.2,337.6z"/>
			<path class="st2" d="M280.7,500.4c-7.4-6.2-11.1-15.6-11.1-28.3c0-12,3.4-21.1,10.2-27.1c6.8-6,17.1-9,30.8-9h34.6l1.6,19.2
				h-36.1c-6.3,0-10.9,1.4-14,4.2c-3.1,2.8-4.6,7-4.6,12.7c0,6.2,2.1,10.7,6.2,13.7c4.1,3,10.3,4.5,18.7,4.5c9.1,0,16-1,20.4-2.9
				c4.5-2,6.7-5,6.7-9.1l2.5,17.1c-2.1,3.3-4.7,6-7.8,8.1c-3.1,2.1-6.7,3.7-10.7,4.7c-4.1,1.1-8.6,1.6-13.7,1.6
				C299.4,509.7,288.2,506.6,280.7,500.4z M344.1,430.8c0-8-2.1-14.2-6.4-18.6c-4.3-4.4-10.3-6.6-18.1-6.6c-4.8,0-9.6,0.7-14.2,2.2
				c-4.6,1.5-8.8,3.6-12.4,6.2l-17.5-12c4.6-5.5,10.7-9.9,18.2-12.9c7.5-3.1,15.9-4.6,25.1-4.6c10.1,0,18.7,1.8,25.9,5.3
				c7.2,3.6,12.7,8.7,16.4,15.5c3.8,6.8,5.6,14.9,5.6,24.4v78.2h-22.7V430.8z"/>
			<path class="st2" d="M437.4,440.8l11.5,22L418,507.9h-26.5L437.4,440.8z M438.1,452.6l-44.8-66.3h26.6l34.9,54.5l46.1,67.1h-26.5
				L438.1,452.6z M445.8,429.4l26.6-43.1H499l-43.1,65.6L445.8,429.4z"/>
			<path class="st2" d="M527.3,337.6h23.9v23.9h-23.9V337.6z M527.3,386.3h23.9v121.6h-23.9V386.3z"/>
			<path class="st2" d="M587.5,386.3h23.9v121.6h-23.9V386.3z M660.2,434.2c0-8.6-2.1-15.2-6.3-19.9s-10.2-7-17.9-7
				c-7.8,0-13.8,2.1-18.1,6.2c-4.3,4.1-6.4,10-6.4,17.5l-2.5-23.4c3.8-7.3,8.7-13,14.7-17c6.1-4,12.8-6,20.1-6
				c8.5,0,15.8,1.9,21.8,5.8c6,3.9,10.6,9.5,13.8,16.9c3.2,7.4,4.7,16.4,4.7,26.8v73.8h-23.9V434.2z M732.8,434.2
				c0-8.6-2.2-15.2-6.7-19.9s-10.7-7-18.8-7c-7.4,0-13.2,2.3-17.2,6.8c-4.1,4.5-6.1,10.9-6.1,19.2l-4.8-23.4
				c3.8-8,8.9-14.3,15.2-18.7c6.3-4.4,13.2-6.6,20.8-6.6c8.7,0,16.2,1.9,22.4,5.8s10.9,9.5,14.2,16.9c3.2,7.4,4.9,16.4,4.9,26.8
				v73.8h-23.9V434.2z"/>
			<path class="st2" d="M793.1,337.6H817v23.9h-23.9V337.6z M793.1,386.3H817v121.6h-23.9V386.3z"/>
			<path class="st2" d="M937.2,406.5l-58.5,79.3h61.6v22.1h-90.6v-20.6l60-78.9h-58.4v-22.1h85.8V406.5z"/>
			<path class="st2" d="M1004.9,509.7c0,0-4-2.1-12-6.3s-14-10.4-18.2-18.6c-4.2-8.2-6.3-18-6.3-29.6v-13.7c0-12,2-22.3,6-30.8
				c4-8.5,9.9-15,17.5-19.5c7.7-4.5,16.9-6.7,27.7-6.7c10.2,0,18.8,2.5,26,7.6c7.2,5.1,12.7,12.4,16.5,22c3.8,9.6,5.7,21.1,5.7,34.6
				v8h-82v-19.2h59.3c-0.7-9.9-3.3-17.6-7.7-23.1c-4.4-5.5-10.3-8.3-17.8-8.3c-9.1,0-16.1,3-21,8.9c-5,5.9-7.4,14.3-7.4,25.2v15.5
				c0,10.1,2.7,17.8,8,23.2c5.3,5.4,12.8,8.1,22.6,8.1c4.8,0,9.6-1,14.4-2.9c4.8-2,9-4.7,12.8-8.2l15.7,15.7
				c-6,5.8-12.8,10.3-20.3,13.4s-15,4.7-22.6,4.7C1010.6,509.7,1004.9,509.7,1004.9,509.7z"/>
			<path class="st2" d="M1100.7,386.3h23.9v121.6h-23.9V386.3z M1159.6,409.3c-3.2-1.3-6.9-2-11.1-2c-7.6,0-13.5,2.1-17.6,6.3
				c-4.2,4.2-6.3,10-6.3,17.4l-2.5-23.4c3.8-7.3,8.6-12.9,14.5-16.9c5.9-4,12.5-6,19.7-6c5.5,0,10.6,0.8,15.1,2.4
				c4.5,1.6,8.4,4,11.8,7.1l-15.6,21.1C1165.5,412.6,1162.8,410.6,1159.6,409.3z"/>
		</g>
	</g>
</g>
</svg>
