<?xml version="1.0" encoding="utf-8"?>
<!-- Generator: Adobe Illustrator 22.0.1, SVG Export Plug-In . SVG Version: 6.00 Build 0)  -->
<svg version="1.1" id="Layer_1" xmlns="http://www.w3.org/2000/svg" xmlns:xlink="http://www.w3.org/1999/xlink" x="0px" y="0px"
	 viewBox="0 0 612 612" style="enable-background:new 0 0 612 612;" xml:space="preserve">
<style type="text/css">
	.st0{fill:#563D7C;}
	.st1{enable-background:new    ;}
	.st2{fill:#FFFFFF;}
</style>
<g inkscape:version="0.48.1 r9760" sodipodi:docname="twitter_bootstrap_logo.svg" xmlns:cc="http://creativecommons.org/ns#" xmlns:dc="http://purl.org/dc/elements/1.1/" xmlns:inkscape="http://www.inkscape.org/namespaces/inkscape" xmlns:rdf="http://www.w3.org/1999/02/22-rdf-syntax-ns#" xmlns:sodipodi="http://sodipodi.sourceforge.net/DTD/sodipodi-0.dtd" xmlns:svg="http://www.w3.org/2000/svg">
	<path class="st0" d="M589.6,612H22.4C10.1,612,0,589.7,0,562.5v-513C0,22.3,10.1,0,22.4,0h567.2C601.9,0,612,22.3,612,49.5v513
		C612,589.7,601.9,612,589.6,612z"/>
	<g>
		<g class="st1">
			<path class="st2" d="M67.8,92.6h23.9V263H67.8V92.6z M79.5,92.6H175v22.7H79.5V92.6z M79.5,168.5h82.6v22.7H79.5V168.5z"/>
			<path class="st2" d="M199.6,141.4h23.9V263h-23.9V141.4z M258.5,164.3c-3.2-1.3-6.9-2-11.1-2c-7.6,0-13.5,2.1-17.6,6.3
				c-4.2,4.2-6.3,10-6.3,17.4l-2.5-23.4c3.8-7.3,8.6-12.9,14.5-16.9c5.9-4,12.5-6,19.7-6c5.5,0,10.6,0.8,15.1,2.4
				c4.5,1.6,8.4,4,11.8,7.1l-15.6,21.1C264.4,167.6,261.8,165.7,258.5,164.3z"/>
			<path class="st2" d="M345.4,92.6h23.8V263h-23.8V92.6z M359.4,240.9h46.2c12.1,0,20.9-2.3,26.5-6.9c5.5-4.6,8.3-11.1,8.3-19.5
				v-0.4c0-5.8-1-10.7-3-14.9c-2-4.1-5.1-7.3-9.4-9.6c-4.3-2.2-9.8-3.3-16.5-3.3h-52v-21.6h52c8.8,0,15.5-2.1,20-6.2
				c4.5-4.1,6.7-10.3,6.7-18.4c0-8.5-2.5-14.9-7.5-19.1c-5-4.2-12.5-6.3-22.5-6.3h-48.8V92.6h53.1c11,0,20.2,1.9,27.7,5.6
				c7.4,3.8,13,9.1,16.6,15.9c3.7,6.9,5.5,15.1,5.5,24.6c0,5.9-1.1,11.3-3.4,16.5c-2.3,5.1-5.7,9.5-10.4,13.1
				c-4.6,3.6-10.4,6.1-17.3,7.3c6.9,1,12.8,3.5,17.8,7.3c5,3.9,8.8,8.7,11.5,14.5c2.7,5.8,4,12,4,18.8v0.4c0,9.2-2,17.3-6.1,24.4
				c-4.1,7-9.9,12.5-17.5,16.3c-7.6,3.8-16.4,5.7-26.5,5.7h-55.1V240.9z"/>
			<path class="st2" d="M488.6,141.4h54.8v21.6h-54.8V141.4z M508,255.4c-4.6-5.4-6.9-13.5-6.9-24.1V106H525v125.6
				c0,3,0.6,5.3,1.8,6.9c1.2,1.6,2.9,2.4,5.2,2.4h11.5v22.7h-13.8C519.8,263.6,512.6,260.9,508,255.4z"/>
		</g>
	</g>
	<g>
		<g class="st1">
			<path class="st2" d="M294.2,344.6h22.4v170.4h-23.3V387.3l1.2,7.5l-42,96.4h-16.6l-42-94.1l1.2-9.8v127.6h-23.3V344.6h22.4
				l50,112.5L294.2,344.6z"/>
			<path class="st2" d="M390.7,447.8l11.5,22l-30.9,45.1h-26.5L390.7,447.8z M391.4,459.6l-44.8-66.3h26.6l34.9,54.5l46.1,67.1
				h-26.5L391.4,459.6z M399.1,436.4l26.6-43.1h26.6l-43.1,65.6L399.1,436.4z"/>
		</g>
	</g>
</g>
</svg>
